{
  "accessors": [
    {
      "bufferView": 2,
      "componentType": 5126,
      "count": 65532,
      "max": [
        1.0670623779296875,
        1.495513916015625,
        2.63653564453125
      ],
      "min": [
        -1.0670623779296875,
        0.1577167510986328,
        -2.645660400390625
      ],
      "type": "VEC3"
    },
    {
      "bufferView": 2,
      "byteOffset": 786384,
      "componentType": 5126,
      "count": 65532,
      "max": [
        1.0,
        1.0,
        1.0
      ],
      "min": [
        -1.0,
        -1.0,
        -1.0
      ],
      "type": "VEC3"
    },
    {
      "bufferView": 3,
      "componentType": 5126,
      "count": 65532,
      "max": [
        1.0,
        1.0,
        1.0,
        1.0
      ],
      "min": [
        -1.0,
        -1.0,
        -1.0,
        -1.0
      ],
      "type": "VEC4"
    },
    {
      "bufferView": 1,
      "componentType": 5126,
      "count": 65532,
      "max": [
        0.7922054529190063,
        0.5949525833129883
      ],
      "min": [
        0.0003984064096584916,
        0.00039839744567871094
      ],
      "type": "VEC2"
    },
    {
      "bufferView": 1,
      "byteOffset": 524256,
      "componentType": 5126,
      "count": 65532,
      "max": [
        0.7922054529190063,
        0.5949525833129883
      ],
      "min": [
        0.0003984064096584916,
        0.00039839744567871094
      ],
      "type": "VEC2"
    },
    {
      "bufferView": 1,
      "byteOffset": 1048512,
      "componentType": 5126,
      "count": 65532,
      "max": [
        0.7922054529190063,
        0.5949525833129883
      ],
      "min": [
        0.0003984064096584916,
        0.00039839744567871094
      ],
      "type": "VEC2"
    },
    {
      "bufferView": 1,
      "byteOffset": 1572768,
      "componentType": 5126,
      "count": 65532,
      "max": [
        0.7922054529190063,
        0.5949525833129883
      ],
      "min": [
        0.0003984064096584916,
        0.00039839744567871094
      ],
      "type": "VEC2"
    },
    {
      "bufferView": 1,
      "byteOffset": 2097024,
      "componentType": 5126,
      "count": 65532,
      "max": [
        0.7922054529190063,
        0.5949525833129883
      ],
      "min": [
        0.0003984064096584916,
        0.00039839744567871094
      ],
      "type": "VEC2"
    },
    {
      "bufferView": 0,
      "componentType": 5125,
      "count": 223311,
      "type": "SCALAR"
    },
    {
      "bufferView": 2,
      "byteOffset": 1572768,
      "componentType": 5126,
      "count": 65532,
      "max": [
        1.068572998046875,
        1.485321044921875,
        2.650390625
      ],
      "min": [
        -1.068572998046875,
        0.0,
        -2.645599365234375
      ],
      "type": "VEC3"
    },
    {
      "bufferView": 2,
      "byteOffset": 2359152,
      "componentType": 5126,
      "count": 65532,
      "max": [
        1.0,
        1.0,
        1.0
      ],
      "min": [
        -1.0,
        -1.0,
        -1.0
      ],
      "type": "VEC3"
    },
    {
      "bufferView": 3,
      "byteOffset": 1048512,
      "componentType": 5126,
      "count": 65532,
      "max": [
        1.0,
        1.0,
        1.0,
        1.0
      ],
      "min": [
        -1.0,
        -1.0,
        -1.0,
        -1.0
      ],
      "type": "VEC4"
    },
    {
      "bufferView": 1,
      "byteOffset": 2621280,
      "componentType": 5126,
      "count": 65532,
      "max": [
        0.9959109425544739,
        0.9964696168899536
      ],
      "min": [
        0.000376672949641943,
        0.0004010796546936035
      ],
      "type": "VEC2"
    },
    {
      "bufferView": 1,
      "byteOffset": 3145536,
      "componentType": 5126,
      "count": 65532,
      "max": [
        0.9959109425544739,
        0.9964696168899536
      ],
      "min": [
        0.000376672949641943,
        0.0004010796546936035
      ],
      "type": "VEC2"
    },
    {
      "bufferView": 1,
      "byteOffset": 3669792,
      "componentType": 5126,
      "count": 65532,
      "max": [
        0.9959109425544739,
        0.9964696168899536
      ],
      "min": [
        0.000376672949641943,
        0.0004010796546936035
      ],
      "type": "VEC2"
    },
    {
      "bufferView": 1,
      "byteOffset": 4194048,
      "componentType": 5126,
      "count": 65532,
      "max": [
        0.9959109425544739,
        0.9964696168899536
      ],
      "min": [
        0.000376672949641943,
        0.0004010796546936035
      ],
      "type": "VEC2"
    },
    {
      "bufferView": 1,
      "byteOffset": 4718304,
      "componentType": 5126,
      "count": 65532,
      "max": [
        0.9959109425544739,
        0.9964696168899536
      ],
      "min": [
        0.000376672949641943,
        0.0004010796546936035
      ],
      "type": "VEC2"
    },
    {
      "bufferView": 0,
      "byteOffset": 893244,
      "componentType": 5125,
      "count": 211710,
      "type": "SCALAR"
    },
    {
      "bufferView": 2,
      "byteOffset": 3145536,
      "componentType": 5126,
      "count": 14156,
      "max": [
        0.9409027099609375,
        1.0538711547851563,
        2.628753662109375
      ],
      "min": [
        -0.8768386840820313,
        0.08640861511230469,
        -2.595245361328125
      ],
      "type": "VEC3"
    },
    {
      "bufferView": 2,
      "byteOffset": 3315408,
      "componentType": 5126,
      "count": 14156,
      "max": [
        0.9999936819076538,
        0.9999977350234985,
        0.9996055364608765
      ],
      "min": [
        -1.0,
        -0.9999822378158569,
        -0.9999958276748657
      ],
      "type": "VEC3"
    },
    {
      "bufferView": 3,
      "byteOffset": 2097024,
      "componentType": 5126,
      "count": 14156,
      "max": [
        0.999975860118866,
        1.0,
        1.0,
        1.0
      ],
      "min": [
        -0.9999990463256836,
        -0.9999667406082153,
        -0.9999998807907104,
        -1.0
      ],
      "type": "VEC4"
    },
    {
      "bufferView": 1,
      "byteOffset": 5242560,
      "componentType": 5126,
      "count": 14156,
      "max": [
        0.38954752683639526,
        0.19960159063339233
      ],
      "min": [
        0.000376672949641943,
        0.00039839744567871094
      ],
      "type": "VEC2"
    },
    {
      "bufferView": 1,
      "byteOffset": 5355808,
      "componentType": 5126,
      "count": 14156,
      "max": [
        0.38954752683639526,
        0.19960159063339233
      ],
      "min": [
        0.000376672949641943,
        0.00039839744567871094
      ],
      "type": "VEC2"
    },
    {
      "bufferView": 1,
      "byteOffset": 5469056,
      "componentType": 5126,
      "count": 14156,
      "max": [
        0.38954752683639526,
        0.19960159063339233
      ],
      "min": [
        0.000376672949641943,
        0.00039839744567871094
      ],
      "type": "VEC2"
    },
    {
      "bufferView": 1,
      "byteOffset": 5582304,
      "componentType": 5126,
      "count": 14156,
      "max": [
        0.38954752683639526,
        0.19960159063339233
      ],
      "min": [
        0.000376672949641943,
        0.00039839744567871094
      ],
      "type": "VEC2"
    },
    {
      "bufferView": 1,
      "byteOffset": 5695552,
      "componentType": 5126,
      "count": 14156,
      "max": [
        0.38954752683639526,
        0.19960159063339233
      ],
      "min": [
        0.000376672949641943,
        0.00039839744567871094
      ],
      "type": "VEC2"
    },
    {
      "bufferView": 0,
      "byteOffset": 1740084,
      "componentType": 5125,
      "count": 55455,
      "type": "SCALAR"
    },
    {
      "bufferView": 2,
      "byteOffset": 3485280,
      "componentType": 5126,
      "count": 4425,
      "max": [
        1.0710906982421875,
        1.5076904296875,
        2.62298583984375
      ],
      "min": [
        -1.0710906982421875,
        0.5798988342285156,
        -2.5249786376953125
      ],
      "type": "VEC3"
    },
    {
      "bufferView": 2,
      "byteOffset": 3538380,
      "componentType": 5126,
      "count": 4425,
      "max": [
        0.9998352527618408,
        0.9999849796295166,
        0.9999680519104004
      ],
      "min": [
        -0.9998340606689453,
        -0.9998770952224731,
        -0.9999948740005493
      ],
      "type": "VEC3"
    },
    {
      "bufferView": 3,
      "byteOffset": 2323520,
      "componentType": 5126,
      "count": 4425,
      "max": [
        0.9983096718788147,
        0.9999990463256836,
        0.9999849796295166,
        -1.0
      ],
      "min": [
        -0.9999974370002747,
        -1.0,
        -0.9998358488082886,
        -1.0
      ],
      "type": "VEC4"
    },
    {
      "bufferView": 1,
      "byteOffset": 5808800,
      "componentType": 5126,
      "count": 4425,
      "max": [
        0.9995020031929016,
        0.999545693397522
      ],
      "min": [
        0.0005000000819563866,
        0.5004979968070984
      ],
      "type": "VEC2"
    },
    {
      "bufferView": 1,
      "byteOffset": 5844200,
      "componentType": 5126,
      "count": 4425,
      "max": [
        0.9995020031929016,
        0.999545693397522
      ],
      "min": [
        0.0005000000819563866,
        0.5004979968070984
      ],
      "type": "VEC2"
    },
    {
      "bufferView": 1,
      "byteOffset": 5879600,
      "componentType": 5126,
      "count": 4425,
      "max": [
        0.9995020031929016,
        0.999545693397522
      ],
      "min": [
        0.0005000000819563866,
        0.5004979968070984
      ],
      "type": "VEC2"
    },
    {
      "bufferView": 1,
      "byteOffset": 5915000,
      "componentType": 5126,
      "count": 4425,
      "max": [
        0.9995020031929016,
        0.999545693397522
      ],
      "min": [
        0.0005000000819563866,
        0.5004979968070984
      ],
      "type": "VEC2"
    },
    {
      "bufferView": 1,
      "byteOffset": 5950400,
      "componentType": 5126,
      "count": 4425,
      "max": [
        0.9995020031929016,
        0.999545693397522
      ],
      "min": [
        0.0005000000819563866,
        0.5004979968070984
      ],
      "type": "VEC2"
    },
    {
      "bufferView": 0,
      "byteOffset": 1961904,
      "componentType": 5125,
      "count": 20592,
      "type": "SCALAR"
    },
    {
      "bufferView": 2,
      "byteOffset": 3591480,
      "componentType": 5126,
      "count": 5479,
      "max": [
        1.0693893432617188,
        1.3752288818359375,
        2.4783782958984375
      ],
      "min": [
        -1.0693893432617188,
        0.4332313537597656,
        -2.602386474609375
      ],
      "type": "VEC3"
    },
    {
      "bufferView": 2,
      "byteOffset": 3657228,
      "componentType": 5126,
      "count": 5479,
      "max": [
        0.9983822107315063,
        0.9995152950286865,
        0.9999992847442627
      ],
      "min": [
        -0.9983822107315063,
        -0.9986675381660461,
        -0.9945964217185974
      ],
      "type": "VEC3"
    },
    {
      "bufferView": 3,
      "byteOffset": 2394320,
      "componentType": 5126,
      "count": 5479,
      "max": [
        0.9997697472572327,
        0.999998152256012,
        0.9999945163726807,
        1.0
      ],
      "min": [
        -1.0,
        -0.999998927116394,
        -1.0,
        -1.0
      ],
      "type": "VEC4"
    },
    {
      "bufferView": 1,
      "byteOffset": 5985800,
      "componentType": 5126,
      "count": 5479,
      "max": [
        0.9994441270828247,
        0.9856046438217163
      ],
      "min": [
        0.014481067657470703,
        0.5004979968070984
      ],
      "type": "VEC2"
    },
    {
      "bufferView": 1,
      "byteOffset": 6029632,
      "componentType": 5126,
      "count": 5479,
      "max": [
        0.9994441270828247,
        0.9856046438217163
      ],
      "min": [
        0.014481067657470703,
        0.5004979968070984
      ],
      "type": "VEC2"
    },
    {
      "bufferView": 1,
      "byteOffset": 6073464,
      "componentType": 5126,
      "count": 5479,
      "max": [
        0.9994441270828247,
        0.9856046438217163
      ],
      "min": [
        0.014481067657470703,
        0.5004979968070984
      ],
      "type": "VEC2"
    },
    {
      "bufferView": 1,
      "byteOffset": 6117296,
      "componentType": 5126,
      "count": 5479,
      "max": [
        0.9994441270828247,
        0.9856046438217163
      ],
      "min": [
        0.014481067657470703,
        0.5004979968070984
      ],
      "type": "VEC2"
    },
    {
      "bufferView": 1,
      "byteOffset": 6161128,
      "componentType": 5126,
      "count": 5479,
      "max": [
        0.9994441270828247,
        0.9856046438217163
      ],
      "min": [
        0.014481067657470703,
        0.5004979968070984
      ],
      "type": "VEC2"
    },
    {
      "bufferView": 0,
      "byteOffset": 2044272,
      "componentType": 5125,
      "count": 23424,
      "type": "SCALAR"
    },
    {
      "bufferView": 2,
      "byteOffset": 3722976,
      "componentType": 5126,
      "count": 22771,
      "max": [
        1.0693435668945313,
        1.51531982421875,
        2.660003662109375
      ],
      "min": [
        -1.0693435668945313,
        0.15254783630371094,
        -2.660003662109375
      ],
      "type": "VEC3"
    },
    {
      "bufferView": 2,
      "byteOffset": 3996228,
      "componentType": 5126,
      "count": 22771,
      "max": [
        1.0,
        0.9999991655349731,
        0.9999966621398926
      ],
      "min": [
        -1.0,
        -0.9999996423721313,
        -0.9999955892562866
      ],
      "type": "VEC3"
    },
    {
      "bufferView": 1,
      "byteOffset": 6204960,
      "componentType": 5126,
      "count": 22771,
      "max": [
        0.9864442944526672,
        0.9980000257492065
      ],
      "min": [
        0.0020000000949949026,
        0.001999974250793457
      ],
      "type": "VEC2"
    },
    {
      "bufferView": 0,
      "byteOffset": 2137968,
      "componentType": 5125,
      "count": 91164,
      "type": "SCALAR"
    },
    {
      "bufferView": 2,
      "byteOffset": 4269480,
      "componentType": 5126,
      "count": 152,
      "max": [
        0.3517386019229889,
        0.41206657886505127,
        2.656510353088379
      ],
      "min": [
        -0.34100541472435,
        0.2658715844154358,
        2.653916358947754
      ],
      "type": "VEC3"
    },
    {
      "bufferView": 2,
      "byteOffset": 4271304,
      "componentType": 5126,
      "count": 152,
      "max": [
        1.0,
        1.0,
        0.0
      ],
      "min": [
        -1.0,
        -1.0,
        -1.0
      ],
      "type": "VEC3"
    },
    {
      "bufferView": 1,
      "byteOffset": 6387128,
      "componentType": 5126,
      "count": 152,
      "max": [
        1.0,
        0.6890479922294617
      ],
      "min": [
        0.0,
        0.3267350196838379
      ],
      "type": "VEC2"
    },
    {
      "bufferView": 0,
      "byteOffset": 2502624,
      "componentType": 5125,
      "count": 696,
      "type": "SCALAR"
    }
  ],
  "asset": {
    "extras": {
      "author": "ItsDiyor (https://sketchfab.com/ItsDiyor)",
      "license": "CC-BY-4.0 (http://creativecommons.org/licenses/by/4.0/)",
      "source": "https://sketchfab.com/3d-models/mercedes-benz-s-class-2020-d5eb89fc81c84ccaacaad82a833fd0bb",
      "title": "Mercedes-Benz S-Class 2020"
    },
    "generator": "Sketchfab-16.65.0",
    "version": "2.0"
  },
  "bufferViews": [
    {
      "buffer": 0,
      "byteLength": 2505408,
      "name": "floatBufferViews",
      "target": 34963
    },
    {
      "buffer": 0,
      "byteLength": 6388344,
      "byteOffset": 2505408,
      "byteStride": 8,
      "name": "floatBufferViews",
      "target": 34962
    },
    {
      "buffer": 0,
      "byteLength": 4273128,
      "byteOffset": 8893752,
      "byteStride": 12,
      "name": "floatBufferViews",
      "target": 34962
    },
    {
      "buffer": 0,
      "byteLength": 2481984,
      "byteOffset": 13166880,
      "byteStride": 16,
      "name": "floatBufferViews",
      "target": 34962
    }
  ],
  "buffers": [
    {
      "byteLength": 15648864,
      "uri": "scene.bin"
    }
  ],
  "images": [
    {
      "uri": "textures/Index_0_1_baseColor.png"
    },
    {
      "uri": "textures/Index_0_1_metallicRoughness.png"
    },
    {
      "uri": "textures/Index_0_1_normal.jpeg"
    },
    {
      "uri": "textures/Index_0_2_baseColor.png"
    },
    {
      "uri": "textures/Index_0_2_metallicRoughness.png"
    },
    {
      "uri": "textures/Index_0_2_normal.jpeg"
    },
    {
      "uri": "textures/Paint_Color_metallicRoughness.png"
    },
    {
      "uri": "textures/metal_white_baseColor.png"
    }
  ],
  "materials": [
    {
      "name": "Index_0_1",
      "normalTexture": {
        "index": 2,
        "texCoord": 2
      },
      "occlusionTexture": {
        "index": 1,
        "texCoord": 3
      },
      "pbrMetallicRoughness": {
        "baseColorTexture": {
          "index": 0
        },
        "metallicRoughnessTexture": {
          "index": 1,
          "texCoord": 1
        }
      }
    },
    {
      "alphaMode": "BLEND",
      "name": "Index_0_2",
      "normalTexture": {
        "index": 5
      },
      "occlusionTexture": {
        "index": 4
      },
      "pbrMetallicRoughness": {
        "baseColorTexture": {
          "index": 3
        },
        "metallicRoughnessTexture": {
          "index": 4
        }
      }
    },
    {
      "alphaMode": "BLEND",
      "name": "Index_0_2_SS",
      "normalTexture": {
        "index": 5
      },
      "occlusionTexture": {
        "index": 4
      },
      "pbrMetallicRoughness": {
        "baseColorTexture": {
          "index": 3
        },
        "metallicRoughnessTexture": {
          "index": 4
        }
      }
    },
    {
      "name": "Paint_Color",
      "occlusionTexture": {
        "index": 6
      },
      "pbrMetallicRoughness": {
        "baseColorFactor": [
          0.1651321945016676,
          0.1651321945016676,
          0.1651321945016676,
          1.0
        ],
        "metallicFactor": 0.3,
        "metallicRoughnessTexture": {
          "index": 6
        },
        "roughnessFactor": 0.0
      }
    },
    {
      "doubleSided": true,
      "name": "metal_white",
      "pbrMetallicRoughness": {
        "baseColorTexture": {
          "index": 7
        },
        "metallicFactor": 0.259843,
        "roughnessFactor": 0.0
      }
    }
  ],
  "meshes": [
    {
      "name": "Object_0",
      "primitives": [
        {
          "attributes": {
            "NORMAL": 1,
            "POSITION": 0,
            "TANGENT": 2,
            "TEXCOORD_0": 3,
            "TEXCOORD_1": 4,
            "TEXCOORD_2": 5,
            "TEXCOORD_3": 6,
            "TEXCOORD_4": 7
          },
          "indices": 8,
          "material": 0,
          "mode": 4
        }
      ]
    },
    {
      "name": "Object_1",
      "primitives": [
        {
          "attributes": {
            "NORMAL": 10,
            "POSITION": 9,
            "TANGENT": 11,
            "TEXCOORD_0": 12,
            "TEXCOORD_1": 13,
            "TEXCOORD_2": 14,
            "TEXCOORD_3": 15,
            "TEXCOORD_4": 16
          },
          "indices": 17,
          "material": 0,
          "mode": 4
        }
      ]
    },
    {
      "name": "Object_2",
      "primitives": [
        {
          "attributes": {
            "NORMAL": 19,
            "POSITION": 18,
            "TANGENT": 20,
            "TEXCOORD_0": 21,
            "TEXCOORD_1": 22,
            "TEXCOORD_2": 23,
            "TEXCOORD_3": 24,
            "TEXCOORD_4": 25
          },
          "indices": 26,
          "material": 0,
          "mode": 4
        }
      ]
    },
    {
      "name": "Object_3",
      "primitives": [
        {
          "attributes": {
            "NORMAL": 28,
            "POSITION": 27,
            "TANGENT": 29,
            "TEXCOORD_0": 30,
            "TEXCOORD_1": 31,
            "TEXCOORD_2": 32,
            "TEXCOORD_3": 33,
            "TEXCOORD_4": 34
          },
          "indices": 35,
          "material": 1,
          "mode": 4
        }
      ]
    },
    {
      "name": "Object_4",
      "primitives": [
        {
          "attributes": {
            "NORMAL": 37,
            "POSITION": 36,
            "TANGENT": 38,
            "TEXCOORD_0": 39,
            "TEXCOORD_1": 40,
            "TEXCOORD_2": 41,
            "TEXCOORD_3": 42,
            "TEXCOORD_4": 43
          },
          "indices": 44,
          "material": 2,
          "mode": 4
        }
      ]
    },
    {
      "name": "Object_5",
      "primitives": [
        {
          "attributes": {
            "NORMAL": 46,
            "POSITION": 45,
            "TEXCOORD_0": 47
          },
          "indices": 48,
          "material": 3,
          "mode": 4
        }
      ]
    },
    {
      "name": "Object_6",
      "primitives": [
        {
          "attributes": {
            "NORMAL": 50,
            "POSITION": 49,
            "TEXCOORD_0": 51
          },
          "indices": 52,
          "material": 4,
          "mode": 4
        }
      ]
    }
  ],
  "nodes": [
    {
      "children": [
        1
      ],
      "matrix": [
        1.0,
        0.0,
        0.0,
        0.0,
        0.0,
        2.220446049250313e-16,
        -1.0,
        0.0,
        0.0,
        1.0,
        2.220446049250313e-16,
        0.0,
        0.0,
        0.0,
        0.0,
        1.0
      ],
      "name": "Sketchfab_model"
    },
    {
      "children": [
        2
      ],
      "name": "root"
    },
    {
      "children": [
        3
      ],
      "matrix": [
        1.0,
        0.0,
        0.0,
        0.0,
        0.0,
        2.220446049250313e-16,
        1.0,
        0.0,
        0.0,
        -1.0,
        2.220446049250313e-16,
        0.0,
        0.0,
        0.0,
        0.0,
        1.0
      ],
      "name": "GLTF_SceneRootNode"
    },
    {
      "children": [
        4,
        8,
        10,
        12
      ],
      "name": "Index_Out_4"
    },
    {
      "children": [
        5,
        6,
        7
      ],
      "name": "Index_0_1_BD_0"
    },
    {
      "mesh": 0,
      "name": "Object_5"
    },
    {
      "mesh": 1,
      "name": "Object_6"
    },
    {
      "mesh": 2,
      "name": "Object_7"
    },
    {
      "children": [
        9
      ],
      "name": "Index_0_2_BD_1"
    },
    {
      "mesh": 3,
      "name": "Object_9"
    },
    {
      "children": [
        11
      ],
      "name": "Index_0_2_SS_BD_2"
    },
    {
      "mesh": 4,
      "name": "Object_11"
    },
    {
      "children": [
        13,
        14
      ],
      "name": "Paint_Color_BD_3"
    },
    {
      "mesh": 5,
      "name": "Object_13"
    },
    {
      "mesh": 6,
      "name": "Object_14"
    }
  ],
  "samplers": [
    {
      "magFilter": 9729,
      "minFilter": 9987,
      "wrapS": 10497,
      "wrapT": 10497
    }
  ],
  "scene": 0,
  "scenes": [
    {
      "name": "Sketchfab_Scene",
      "nodes": [
        0
      ]
    }
  ],
  "textures": [
    {
      "sampler": 0,
      "source": 0
    },
    {
      "sampler": 0,
      "source": 1
    },
    {
      "sampler": 0,
      "source": 2
    },
    {
      "sampler": 0,
      "source": 3
    },
    {
      "sampler": 0,
      "source": 4
    },
    {
      "sampler": 0,
      "source": 5
    },
    {
      "sampler": 0,
      "source": 6
    },
    {
      "sampler": 0,
      "source": 7
    }
  ]
}
